HIERARCHY
ROOT Hips
{
	OFFSET 0.00000 0.00000 0.00000
	CHANNELS 6 Xposition Yposition Zposition Zrotation Yrotation Xrotation 
	JOINT LHipJoint
	{
		OFFSET 0 0 0
		CHANNELS 3 Zrotation Yrotation Xrotation
		JOINT LeftUpLeg
		{
			OFFSET 1.56857 -1.73443 1.15205
			CHANNELS 3 Zrotation Yrotation Xrotation
			JOINT LeftLeg
			{
				OFFSET 2.39362 -6.57643 0.00000
				CHANNELS 3 Zrotation Yrotation Xrotation
				JOINT LeftFoot
				{
					OFFSET 2.50952 -6.89485 0.00000
					CHANNELS 3 Zrotation Yrotation Xrotation
					JOINT LeftToeBase
					{
						OFFSET 0.17171 -0.47178 1.88682
						CHANNELS 3 Zrotation Yrotation Xrotation
						End Site
						{
							OFFSET 0.00000 -0.00000 0.98146
						}
					}
				}
			}
		}
	}
	JOINT RHipJoint
	{
		OFFSET 0 0 0
		CHANNELS 3 Zrotation Yrotation Xrotation
		JOINT RightUpLeg
		{
			OFFSET -1.28153 -1.73443 1.15205
			CHANNELS 3 Zrotation Yrotation Xrotation
			JOINT RightLeg
			{
				OFFSET -2.26861 -6.23296 0.00000
				CHANNELS 3 Zrotation Yrotation Xrotation
				JOINT RightFoot
				{
					OFFSET -2.54143 -6.98254 0.00000
					CHANNELS 3 Zrotation Yrotation Xrotation
					JOINT RightToeBase
					{
						OFFSET -0.23309 -0.64041 1.93119
						CHANNELS 3 Zrotation Yrotation Xrotation
						End Site
						{
							OFFSET -0.00000 -0.00000 1.02013
						}
					}
				}
			}
		}
	}
	JOINT LowerBack
	{
		OFFSET 0 0 0
		CHANNELS 3 Zrotation Yrotation Xrotation
		JOINT Spine
		{
			OFFSET -0.07096 2.10460 -0.27878
			CHANNELS 3 Zrotation Yrotation Xrotation
			JOINT Spine1
			{
				OFFSET -0.00826 2.13662 -0.08279
				CHANNELS 3 Zrotation Yrotation Xrotation
				JOINT Neck
				{
					OFFSET 0 0 0
					CHANNELS 3 Zrotation Yrotation Xrotation
					JOINT Neck1
					{
						OFFSET 0.03239 1.77799 0.24435
						CHANNELS 3 Zrotation Yrotation Xrotation
						JOINT Head
						{
							OFFSET 0.01026 1.74194 -0.49664
							CHANNELS 3 Zrotation Yrotation Xrotation
							End Site
							{
								OFFSET 0.00170 1.83057 -0.19653
							}
						}
					}
				}
				JOINT LeftShoulder
				{
					OFFSET 0 0 0
					CHANNELS 3 Zrotation Yrotation Xrotation
					JOINT LeftArm
					{
						OFFSET 3.19178 1.35907 -0.31412
						CHANNELS 3 Zrotation Yrotation Xrotation
						JOINT LeftForeArm
						{
							OFFSET 4.85247 -0.00000 -0.00000
							CHANNELS 3 Zrotation Yrotation Xrotation
							JOINT LeftHand
							{
								OFFSET 3.55584 -0.00000 0.00000
								CHANNELS 3 Zrotation Yrotation Xrotation
								JOINT LeftFingerBase
								{
									OFFSET 0 0 0
									CHANNELS 3 Zrotation Yrotation Xrotation
									JOINT LeftHandIndex1
									{
										OFFSET 0.69320 -0.00000 0.00000
										CHANNELS 3 Zrotation Yrotation Xrotation
										End Site
										{
											OFFSET 0.55888 -0.00000 0.00000
										}
									}
								}
								JOINT LThumb
								{
									OFFSET 0 0 0
									CHANNELS 3 Zrotation Yrotation Xrotation
									End Site
									{
										OFFSET 0.56741 -0.00000 0.56741
									}
								}
							}
						}
					}
				}
				JOINT RightShoulder
				{
					OFFSET 0 0 0
					CHANNELS 3 Zrotation Yrotation Xrotation
					JOINT RightArm
					{
						OFFSET -3.28999 1.24191 -0.26899
						CHANNELS 3 Zrotation Yrotation Xrotation
						JOINT RightForeArm
						{
							OFFSET -4.64462 -0.00000 0.00000
							CHANNELS 3 Zrotation Yrotation Xrotation
							JOINT RightHand
							{
								OFFSET -3.40703 -0.00000 0.00000
								CHANNELS 3 Zrotation Yrotation Xrotation
								JOINT RightFingerBase
								{
									OFFSET 0 0 0
									CHANNELS 3 Zrotation Yrotation Xrotation
									JOINT RightHandIndex1
									{
										OFFSET -0.61958 -0.00000 0.00000
										CHANNELS 3 Zrotation Yrotation Xrotation
										End Site
										{
											OFFSET -0.49952 -0.00000 0.00000
										}
									}
								}
								JOINT RThumb
								{
									OFFSET 0 0 0
									CHANNELS 3 Zrotation Yrotation Xrotation
									End Site
									{
										OFFSET -0.50715 -0.00000 0.50715
									}
								}
							}
						}
					}
				}
			}
		}
	}
}
MOTION
Frames: 11
Frame Time: .0083333
12.1329 17.2044 -4.2806 -197.8130 5.5484 -170.9290 0.0000 0.0000 0.0000 -21.8127 22.2974 -24.2298 3.4324 11.3641 33.5178 0.3446 -13.5662 22.8706 1.6521 8.1003 23.0192 0.0000 0.0000 0.0000 -21.8041 6.9307 -30.4817 -1.5360 -7.8242 22.1813 -0.0651 0.4555 -4.6771 -0.3383 3.7375 -10.3392 -0.7340 0.2635 21.4990 4.5454 1.8022 6.5633 4.8268 1.3989 -5.0148 -9.2722 -13.9141 -17.7601 4.4611 -17.1980 13.7369 0.6567 -8.2407 8.3122 -0.0000 -0.0000 0.0000 -26.0055 -5.6381 26.4911 20.2311 -30.9198 -5.6496 -0.0000 -0.0000 10.3749 13.8309 -23.3932 -5.5829 -7.1250 0.0000 -0.0000 -9.4935 6.2404 8.5260 -0.0000 -0.0000 0.0000 55.7302 14.5470 -10.1964 -16.2796 25.8983 -3.7672 0.0000 0.0000 4.3311 -21.3536 -28.1705 10.4575 7.1250 -0.0000 -0.0000 10.6004 -59.5656 -3.7962
12.4031 17.0734 -4.3979 -198.7250 2.2187 -171.6260 0.0000 0.0000 0.0000 -21.0043 23.5570 -24.8028 4.0799 12.2660 36.6796 -0.2568 -14.2631 17.0487 0.3495 3.7986 10.5107 0.0000 0.0000 0.0000 -22.0321 4.8723 -28.9476 -1.8272 -8.4965 24.2327 -0.1569 1.8873 -7.0622 -0.8529 5.8899 -16.4652 -1.0159 0.1802 21.3338 4.7854 1.6867 6.4430 5.2818 1.3595 -5.0603 -9.1380 -13.4158 -18.2119 4.5208 -17.0526 13.9836 0.6527 -8.1261 8.4464 0.0000 0.0000 0.0000 -22.8200 -5.7541 24.2185 20.7249 -31.5058 -5.9055 -0.0000 -0.0000 10.4590 15.7558 -24.0725 -6.5648 -7.1250 0.0000 -0.0000 -8.3411 5.3024 7.6175 0.0000 0.0000 0.0000 58.1444 13.1503 -7.7216 -16.3849 26.0397 -3.8134 0.0000 0.0000 3.0188 -22.6184 -27.8222 11.0042 7.1250 -0.0000 -0.0000 9.0082 -59.5106 -3.2080
12.6519 16.9342 -4.5059 -199.9190 -1.5050 -172.0940 0.0000 0.0000 0.0000 -20.6688 24.1154 -25.5211 4.7738 13.1244 39.8361 -0.5235 -13.6228 10.3389 0.0273 -1.0667 -2.9323 0.0000 0.0000 0.0000 -22.1154 0.9049 -28.3699 -2.3901 -9.6353 27.8035 -0.3393 2.6790 -10.4050 -3.3520 11.2441 -33.1077 -0.7264 1.5582 21.2323 5.0964 1.0098 5.9886 5.7313 -0.0185 -5.4466 -9.3892 -13.2291 -18.5557 4.7443 -16.7494 14.3833 0.7691 -7.9614 8.6652 0.0000 0.0000 0.0000 -19.0098 -6.7502 22.1740 20.6892 -31.4638 -5.8869 -0.0000 -0.0000 9.0734 16.3111 -23.9718 -6.7802 -7.1250 0.0000 -0.0000 -7.9920 5.3264 7.2884 0.0000 0.0000 0.0000 60.6450 12.0212 -6.3819 -16.3711 26.0213 -3.8073 0.0000 0.0000 2.2840 -22.8516 -27.5292 11.0221 7.1250 -0.0000 -0.0000 8.5956 -59.2666 -3.0094
12.9111 16.7916 -4.6102 -200.8690 -4.9459 -172.6580 0.0000 0.0000 0.0000 -19.9568 24.9016 -25.9791 5.4120 13.8333 42.5737 -0.4039 -11.1823 4.3927 0.3154 -3.6101 -9.9824 0.0000 0.0000 0.0000 -22.1926 -2.3751 -27.9480 -3.0511 -10.7774 31.5327 -0.4973 3.4700 -12.5865 -3.0754 10.8161 -31.6620 -1.1935 1.5278 21.4286 5.3439 0.9847 5.6561 6.2941 0.0194 -5.9204 -9.4723 -13.0294 -18.8129 4.6637 -16.4526 14.9509 0.7670 -7.8277 8.8838 -0.0000 -0.0000 0.0000 -16.3363 -7.6650 18.6155 20.7550 -31.5412 -5.9212 -0.0000 -0.0000 8.8606 17.4874 -23.7608 -7.2346 -7.1250 0.0000 -0.0000 -7.2502 5.3710 6.5939 -0.0000 -0.0000 0.0000 63.2238 11.1021 -5.9780 -16.3513 25.9947 -3.7986 0.0000 0.0000 1.7369 -22.5442 -27.4058 10.8174 7.1250 -0.0000 -0.0000 8.8723 -59.0691 -3.0652
13.1549 16.6385 -4.6948 -201.6930 -8.5604 -172.9910 0.0000 0.0000 0.0000 -19.2505 25.0379 -26.5899 5.9704 14.3996 44.8628 -0.1561 -7.8481 -0.9421 0.6003 -4.9598 -13.7938 0.0000 0.0000 0.0000 -22.2568 -4.3463 -28.3356 -4.1214 -12.3202 36.8743 -0.7400 3.3374 -15.4649 -2.6663 10.1341 -29.4121 -1.3909 1.2910 21.5343 5.4905 0.7373 5.2961 6.6487 -0.0501 -6.3428 -8.9586 -12.6686 -19.1539 4.2293 -15.9791 15.3165 0.6027 -7.6170 8.9535 -0.0000 -0.0000 0.0000 -13.6507 -8.4158 14.6450 20.9924 -31.8195 -6.0459 -0.0000 -0.0000 7.3441 18.3826 -22.4345 -7.2278 -7.1250 0.0000 -0.0000 -6.5957 6.5971 5.8340 -0.0000 -0.0000 0.0000 65.7742 10.5780 -5.2742 -16.3087 25.9374 -3.7800 0.0000 0.0000 0.3906 -22.6282 -27.3796 10.8518 7.1250 -0.0000 -0.0000 8.7659 -59.0617 -3.0266
13.4196 16.4861 -4.7783 -201.9690 -11.3735 -173.7850 0.0000 0.0000 0.0000 -17.7228 25.9765 -26.6164 6.3507 14.7598 46.3736 0.0843 -3.8803 -5.4532 1.1925 -6.9294 -19.5063 0.0000 0.0000 0.0000 -21.6853 -4.9788 -27.9586 -4.9877 -13.3699 40.7696 -0.9679 2.7058 -17.8803 -2.1507 9.1731 -26.3384 -1.7279 1.3326 22.0536 5.7750 0.7565 5.1879 7.1799 -0.0203 -6.7429 -8.7937 -12.2828 -19.1681 4.3575 -15.4399 14.9348 0.7198 -7.3456 8.7899 -0.0000 -0.0000 0.0000 -11.1506 -8.2781 10.4242 21.5919 -32.5128 -6.3651 -0.0000 -0.0000 5.2187 19.8392 -20.8989 -7.3338 -7.1250 0.0000 -0.0000 -5.5625 7.9714 4.7604 -0.0000 -0.0000 0.0000 68.1725 10.6412 -4.2373 -16.2408 25.8461 -3.7503 0.0000 -0.0000 -1.5749 -22.6528 -27.5513 10.9259 7.1250 -0.0000 -0.0000 8.8276 -59.2427 -3.0864
13.6545 16.3493 -4.8750 -201.3470 -14.1521 -174.6020 0.0000 0.0000 0.0000 -15.3443 26.6898 -26.6687 6.6543 15.0338 47.5545 0.1936 -1.6219 -7.9022 1.0864 -6.6244 -18.6072 0.0000 0.0000 0.0000 -20.0480 -5.9285 -27.9070 -5.9294 -14.3596 44.6978 -1.2208 1.6332 -20.4123 -2.3832 9.6224 -27.7623 -1.1558 1.2248 22.1393 6.4000 0.7661 5.0962 7.5541 -0.0281 -6.8885 -9.2791 -11.8989 -18.8675 4.6843 -14.8052 14.4342 1.0234 -7.0535 8.5948 0.0000 0.0000 0.0000 -9.4376 -8.7044 5.6113 21.7558 -32.7000 -6.4534 -0.0000 -0.0000 3.4424 21.1979 -19.0935 -7.2302 -7.1250 0.0000 -0.0000 -4.5565 9.6626 3.7392 0.0000 0.0000 0.0000 70.1491 10.9382 -3.1461 -16.2027 25.7947 -3.7337 0.0000 -0.0000 -3.5896 -22.4469 -27.5865 10.8306 7.1250 -0.0000 -0.0000 9.0739 -59.2305 -3.1707
13.8531 16.2331 -4.9897 -200.6530 -16.4796 -175.2580 0.0000 0.0000 0.0000 -13.1274 27.7104 -26.9381 6.9343 15.2763 48.6254 0.2519 -0.4220 -9.3402 0.6455 -5.1398 -14.3077 0.0000 0.0000 0.0000 -18.5317 -6.7966 -27.5620 -6.6144 -14.9984 47.4002 -1.4289 0.8851 -22.3394 -2.5114 9.8585 -28.5199 -0.4586 1.2396 21.7689 6.9892 0.9677 4.9996 7.7469 0.0565 -6.8252 -9.6099 -11.5770 -18.6931 4.7096 -14.2553 14.1354 1.1807 -6.8181 8.4543 0.0000 0.0000 0.0000 -7.6082 -8.6285 1.6486 22.4211 -33.4496 -6.8165 -0.0000 0.0000 -0.4724 21.7869 -17.4648 -6.8405 -7.1250 0.0000 -0.0000 -4.0567 11.2984 3.1915 0.0000 0.0000 0.0000 71.9587 11.2794 -2.3342 -16.2007 25.7920 -3.7329 0.0000 -0.0000 -5.2798 -23.7063 -27.5630 11.4851 7.1250 -0.0000 -0.0000 7.6603 -59.5026 -2.7227
14.0340 16.1396 -5.1113 -200.8140 -18.3486 -175.7210 0.0000 0.0000 0.0000 -12.0096 28.9406 -26.9786 7.1166 15.4293 49.3139 0.2713 -0.0665 -9.8150 0.2266 -3.0644 -8.4580 0.0000 0.0000 0.0000 -18.0755 -7.5974 -27.4345 -7.3612 -15.6287 50.2275 -1.6466 0.7228 -24.0601 -2.5288 9.8901 -28.6215 -0.5213 1.4868 21.3988 7.2011 1.3178 4.9710 7.9170 0.2400 -6.7173 -9.5009 -11.3212 -18.6306 4.7538 -13.8875 13.6644 1.2521 -6.6377 8.2549 0.0000 0.0000 0.0000 -5.4916 -8.4614 -1.4569 23.1487 -34.2510 -7.2218 -0.0000 0.0000 -4.8874 23.5943 -15.9451 -6.8421 -7.1250 0.0000 -0.0000 -2.7500 12.6788 2.0818 0.0000 0.0000 0.0000 73.8545 11.6637 -1.6775 -16.3428 25.9832 -3.7949 0.0000 -0.0000 -6.0242 -23.1688 -27.5922 11.2118 7.1250 -0.0000 -0.0000 8.2754 -59.4056 -2.9239
14.2194 16.0602 -5.2258 -201.5210 -19.9700 -176.2430 0.0000 0.0000 0.0000 -11.4663 30.1102 -26.7841 7.3241 15.5988 50.0896 0.2752 0.4815 -10.0949 0.2034 -2.9043 -8.0125 0.0000 0.0000 0.0000 -18.1394 -8.5421 -26.3079 -7.7194 -15.9089 51.5456 -1.7794 0.4950 -25.0966 -2.5171 9.8689 -28.5531 -1.1601 1.8659 21.4138 7.2321 1.7248 4.9863 8.2180 0.4676 -6.7878 -9.3326 -11.0428 -18.6985 4.6180 -13.4907 13.5178 1.2450 -6.4554 8.1675 0.0000 0.0000 0.0000 -3.6294 -8.8921 -4.8698 23.3660 -34.4866 -7.3445 -0.0000 0.0000 -7.8817 26.9474 -15.1431 -7.5647 -7.1250 0.0000 -0.0000 -0.4380 13.0923 0.3274 0.0000 0.0000 0.0000 75.6355 11.9307 -0.1693 -16.6823 26.4371 -3.9449 0.0000 -0.0000 -7.1069 -26.1262 -28.5142 13.1776 7.1250 -0.0000 -0.0000 5.3719 -61.0785 -2.1075
14.4118 15.9888 -5.3302 -202.5360 -21.4689 -176.7800 0.0000 0.0000 0.0000 -11.2449 31.0280 -26.6906 7.7015 15.8952 51.4801 0.2762 1.2253 -10.4501 0.3350 -3.7195 -10.2888 0.0000 0.0000 0.0000 -18.3999 -8.8948 -25.6578 -8.2917 -16.3297 53.6067 -1.9331 -0.0384 -26.3420 -2.4125 9.6771 -27.9374 -2.2426 2.2678 21.7981 7.2356 2.0675 4.9704 8.7801 0.6795 -7.0993 -9.4266 -10.7039 -18.9786 4.2805 -12.9443 14.0824 1.2037 -6.2331 8.3507 -0.0000 -0.0000 0.0000 -1.8814 -8.8211 -8.1289 23.7199 -34.8666 -7.5458 -0.0000 0.0000 -11.1714 30.2696 -15.3950 -8.8074 -7.1250 0.0000 -0.0000 1.7555 12.3028 -1.3418 -0.0000 -0.0000 0.0000 77.1083 12.2107 1.0184 -17.1356 27.0362 -4.1488 0.0000 -0.0000 -4.3835 -37.6827 -28.2610 20.0887 7.1250 -0.0000 -0.0000 -9.3668 -63.9319 4.3165
